<?xml version="1.0" encoding="UTF-8"?>
<svg width="67px" height="19px" viewBox="0 0 67 19" version="1.1" xmlns="http://www.w3.org/2000/svg" xmlns:xlink="http://www.w3.org/1999/xlink">
    <!-- Generator: Sketch 51.2 (57519) - http://www.bohemiancoding.com/sketch -->
    <title>nav-logo</title>
    <desc>Created with Sketch.</desc>
    <defs>
        <polygon id="path-1" points="0.0906756098 0.135213592 6.99165122 0.135213592 6.99165122 18.9999816 0.0906756098 18.9999816"></polygon>
        <polygon id="path-3" points="0.0838804878 0.135213592 6.98519756 0.135213592 6.98519756 18.9999816 0.0838804878 18.9999816"></polygon>
        <polygon id="path-5" points="0 19 67 19 67 0 0 0"></polygon>
    </defs>
    <g id="Page-1" stroke="none" stroke-width="1" fill="none" fill-rule="evenodd">
        <g id="desktop" transform="translate(-479.000000, -25.000000)">
            <g id="nav-logo" transform="translate(479.000000, 25.000000)">
                <path d="M13.8868876,12.0230736 C13.8868876,13.9214069 15.314847,15.3212031 16.9999086,15.3212031 C18.6869816,15.3212031 20.114941,13.9214069 20.114941,11.9999073 C20.114941,10.0774811 18.6869816,8.67768497 16.9999086,8.67768497 C15.314847,8.67768497 13.8868876,10.0774811 13.8868876,11.9999073 L13.8868876,12.0230736 Z M10,11.9758145 C10,8.7723885 12.2722274,5 16.9999086,5 C21.7296012,5 24,8.7723885 24,11.9999073 C24,15.2264995 21.7296012,19 16.9999086,19 C12.2722274,19 10,15.2264995 10,11.9999073 L10,11.9758145 Z" id="Fill-1" fill="#1D1D1B"></path>
                <g id="Group-5" transform="translate(29.000000, 0.000000)">
                    <mask id="mask-2" fill="white">
                        <use xlink:href="#path-1"></use>
                    </mask>
                    <g id="Clip-4"></g>
                    <path d="M1.52550488,8.26682621 L0.0906756098,8.26682621 L0.0906756098,5.11430194 L1.52550488,5.11430194 L1.52550488,4.51312718 C1.52550488,0.485680583 4.28213902,0.135195146 6.99165122,0.135195146 L6.99165122,3.26244757 C6.27338293,3.26244757 5.3702122,3.26244757 5.3702122,4.58857379 L5.3702122,5.11430194 L6.99165122,5.11430194 L6.99165122,8.26682621 L5.3702122,8.26682621 L5.3702122,18.9999816 L1.52550488,18.9999816 L1.52550488,8.26682621 Z" id="Fill-3" fill="#1D1D1B" mask="url(#mask-2)"></path>
                </g>
                <path d="M0,0 L4.22001499,0 L4.22001499,14.5148436 C4.22001499,15.8503022 5.2113943,15.8503022 6,15.8503022 L6,19 C3.02586207,19 0,18.6471848 0,14.590646 L0,0 Z" id="Fill-6" fill="#1D1D1B"></path>
                <g id="Group-10" transform="translate(40.000000, 0.000000)">
                    <mask id="mask-4" fill="white">
                        <use xlink:href="#path-3"></use>
                    </mask>
                    <g id="Clip-9"></g>
                    <path d="M1.5205878,8.26682621 L0.0838804878,8.26682621 L0.0838804878,5.11430194 L1.5205878,5.11430194 L1.5205878,4.51312718 C1.5205878,0.485680583 4.27568537,0.135195146 6.98519756,0.135195146 L6.98519756,3.26244757 C6.26675854,3.26244757 5.3635878,3.26244757 5.3635878,4.58857379 L5.3635878,5.11430194 L6.98519756,5.11430194 L6.98519756,8.26682621 L5.3635878,8.26682621 L5.3635878,18.9999816 L1.5205878,18.9999816 L1.5205878,8.26682621 Z" id="Fill-8" fill="#1D1D1B" mask="url(#mask-4)"></path>
                </g>
                <mask id="mask-6" fill="white">
                    <use xlink:href="#path-5"></use>
                </mask>
                <g id="Clip-12"></g>
                <polygon id="Fill-11" fill="#1D1D1B" mask="url(#mask-6)" points="53 19 57 19 57 8 53 8"></polygon>
                <path d="M57,2.5 C57,3.88059425 55.8805113,5 54.4998147,5 C53.1193034,5 52,3.88059425 52,2.5 C52,1.11922051 53.1193034,0 54.4998147,0 C55.8805113,0 57,1.11922051 57,2.5" id="Fill-13" fill="#1D1D1B" mask="url(#mask-6)"></path>
                <path d="M67,16.4999074 C67,17.880738 65.8806966,19 64.4998147,19 C63.1193034,19 62,17.880738 62,16.4999074 C62,15.1194472 63.1193034,14 64.4998147,14 C65.8806966,14 67,15.1194472 67,16.4999074" id="Fill-14" fill="#1D1D1B" mask="url(#mask-6)"></path>
            </g>
        </g>
    </g>
</svg>