<?xml version="1.0" encoding="UTF-8"?>
<svg width="22px" height="20px" viewBox="0 0 22 20" version="1.1" xmlns="http://www.w3.org/2000/svg" xmlns:xlink="http://www.w3.org/1999/xlink">
    <!-- Generator: Sketch 51.2 (57519) - http://www.bohemiancoding.com/sketch -->
    <title>Group 6</title>
    <desc>Created with Sketch.</desc>
    <defs>
        <polygon id="path-1" points="0 0.103649915 21.854796 0.103649915 21.854796 14.4443863 0 14.4443863"></polygon>
    </defs>
    <g id="Page-1" stroke="none" stroke-width="1" fill="none" fill-rule="evenodd">
        <g id="desktop" transform="translate(-974.000000, -24.000000)">
            <g id="Group-6" transform="translate(974.000000, 24.000000)">
                <g id="Group-3" transform="translate(0.000000, 5.555556)">
                    <mask id="mask-2" fill="white">
                        <use xlink:href="#path-1"></use>
                    </mask>
                    <g id="Clip-2"></g>
                    <path d="M2.72210783,2.95802703 C2.75271652,3.10618018 2.76993391,3.21666066 2.79862957,3.32401802 C3.48866435,5.90762162 4.20050783,8.48556456 4.85285565,11.0791231 C4.97586435,11.5682823 5.15549913,11.6676366 5.60659478,11.6650991 C9.06442087,11.6465556 12.5224383,11.6551441 15.9804557,11.6547538 C16.1556904,11.6547538 16.3380035,11.6814955 16.503673,11.6401141 C16.6134817,11.6127868 16.7602122,11.5026967 16.7875687,11.401 C17.4999861,8.75708108 18.1993948,6.10945345 18.8993774,3.46182583 C18.9391687,3.31093994 18.9630817,3.15556456 19.0032557,2.95802703 L2.72210783,2.95802703 Z M10.9747861,0.107006006 C13.5728904,0.107006006 16.1708035,0.0986126126 18.7687165,0.110129129 C20.3662991,0.117156156 21.5569774,1.08122523 21.81696,2.58110511 C21.8733948,2.9063003 21.8693774,3.27072973 21.7867339,3.58831231 C21.0477252,6.42762162 20.2893948,9.26185586 19.5268557,12.0949189 C19.15496,13.4759249 17.9792035,14.4269159 16.5752209,14.4325766 C12.7659687,14.4483874 8.95652522,14.4483874 5.14746435,14.4321862 C3.78384696,14.4265255 2.67982957,13.5338979 2.35365565,12.2661051 C1.84459478,10.2887778 1.33132522,8.31281682 0.814038261,6.33763664 C0.612786087,5.56934835 0.44482087,4.78681081 0.175655652,4.04311712 C-0.544031304,2.0531021 1.04953391,0.0937327327 3.08520348,0.103687688 C5.71506435,0.116765766 8.34492522,0.107006006 10.9747861,0.107006006 Z" id="Fill-1" fill="#000000" mask="url(#mask-2)"></path>
                </g>
                <path d="M10.9742779,4.35322811e-05 C13.3399263,-0.00928212445 15.3661964,1.4809884 15.3997943,3.25454485 C15.4121935,3.89740365 14.8628287,4.39732 14.0966778,4.44058493 C13.2569316,4.48782474 12.6849683,4.09905187 12.5723755,3.40390824 C12.4637825,2.73322535 12.0148112,2.29767132 11.3428543,2.21114146 C10.6023018,2.11589745 9.93294465,2.34322945 9.62716425,2.83672485 C9.50277222,3.03760867 9.46477466,3.2744192 9.42097747,3.4986936 C9.30238507,4.10700161 8.74042108,4.4700907 7.93447274,4.44196085 C7.16732191,4.41520692 6.61835709,3.97369058 6.60095821,3.36951033 C6.5495615,1.56828266 8.57283183,0.00936918901 10.9742779,4.35322811e-05" id="Fill-4" fill="#000000"></path>
            </g>
        </g>
    </g>
</svg>